<svg xmlns="http://www.w3.org/2000/svg" width="70" height="53" fill="none" viewBox="0 0 70 53"><g clip-path="url(#clip0_7055_1200)"><path fill="#1E959B" d="M45.0144 27.3998L64.8249 39.9236V14.347L45.0144 27.3998Z"/><path fill="#1E959B" d="M6.06189 14.347V39.9236L25.8724 27.3998L6.06189 14.347Z"/><path fill="#1E959B" d="M61.1515 6.89893H9.73389C7.90122 6.89893 6.44684 8.26516 6.17139 10.0244L35.4427 29.3096L64.714 10.0244C64.4385 8.26516 62.9841 6.89893 61.1515 6.89893Z"/><path fill="#1E959B" d="M41.6502 29.6182L36.4534 33.0411C36.1449 33.2431 35.796 33.3423 35.4434 33.3423C35.0908 33.3423 34.7419 33.2431 34.4334 33.0411L29.2366 29.6145L6.17944 44.1987C6.46224 45.9433 7.90928 47.2985 9.7346 47.2985H61.1522C62.9775 47.2985 64.4245 45.9433 64.7073 44.1987L41.6502 29.6182Z"/></g><defs><clipPath id="clip0_7055_1200"><rect width="69.387" height="52.464" fill="#fff" transform="translate(0.204712 0.484375)"/></clipPath></defs></svg>